<?xml version="1.0" encoding="iso-8859-1"?>
<!DOCTYPE svg PUBLIC "-//W3C//DTD SVG 1.1//EN" "http://www.w3.org/Graphics/SVG/1.1/DTD/svg11.dtd">
<svg 
 version="1.1" xmlns="http://www.w3.org/2000/svg" xmlns:xlink="http://www.w3.org/1999/xlink" x="0px" y="0px" width="512px"
	 height="512px" viewBox="0 0 512 512" style="enable-background:new 0 0 512 512;" xml:space="preserve"
><g id="7935ec95c421cee6d86eb22ecd13b91f"><g></g><g fill="#3f9d2f"><path style="display: inline;" d="M490.209,138.896h-85.168C398.192,79.213,334.384,32.438,256.64,32.438
		S115.088,79.213,108.239,138.896H21.792c-11.71,0-21.292,9.606-21.292,21.346v297.975c0,11.739,9.582,21.346,21.292,21.346h468.417
		c11.71,0,21.291-9.606,21.291-21.346V160.242C511.5,148.502,501.919,138.896,490.209,138.896z M149.542,436.871h-42.584V180.723
		h42.584V436.871z M151.334,138.896c7.639-35.567,52.755-63.875,105.306-63.875s97.667,28.308,105.307,63.875H151.334z
		 M405.041,436.871h-42.582V180.723h42.582V436.871z"></path></g></g></svg>