<?xml version="1.0" encoding="iso-8859-1"?>
<!DOCTYPE svg PUBLIC "-//W3C//DTD SVG 1.1//EN" "http://www.w3.org/Graphics/SVG/1.1/DTD/svg11.dtd">
<svg 
 version="1.1" xmlns="http://www.w3.org/2000/svg" xmlns:xlink="http://www.w3.org/1999/xlink" x="0px" y="0px" width="512px"
	 height="512px" viewBox="0 0 512 512" style="enable-background:new 0 0 512 512;" xml:space="preserve"
><g id="7935ec95c421cee6d86eb22ecd156cd9"><g></g><g fill="#6ab787"><path style="display: inline;" d="M301.505,348.448c1.913,3.94,3.3,8.096,4.146,12.461v37.035H57.277v-37.035
		c0.965-4.365,2.392-8.521,4.307-12.461c1.597-3.438,3.789-6.727,6.554-9.976c2.772-3.265,6.328-5.679,10.697-7.286
		c2.236-0.736,71.938-30.289,75.235-31.771v-10.712c-0.207-0.839-0.555-2.152-1.028-3.911c-0.491-1.76-0.987-3.537-1.53-5.356
		c-0.625-2.11-1.383-4.406-2.232-6.86c-3.083-5.752-5.537-12.262-7.346-19.558c-1.807-7.297-2.724-15.049-2.724-23.244
		c0-10.764,1.153-19.869,3.434-27.317c2.3-7.459,5.412-13.525,9.359-18.205c3.934-4.687,8.535-8.102,13.817-10.225
		c5.265-2.14,10.931-3.193,17.004-3.193c5.967,0,11.578,1.02,16.846,3.112c5.278,2.081,9.906,5.426,13.898,10.054
		c3.996,4.64,7.131,10.706,9.43,18.224c2.299,7.489,3.434,16.697,3.434,27.55c0,7.995-0.88,15.566-2.635,22.759
		c-1.76,7.198-4.188,13.655-7.268,19.426c-0.851,2.64-1.656,5.145-2.392,7.478c-0.64,2.04-1.231,3.984-1.76,5.822
		c-0.54,1.889-0.799,3.253-0.799,4.096v11.17c3.408,1.486,48.458,21,52.712,22.782c4.251,1.737,27.902,11.902,30.673,15.167
		C297.73,341.722,299.904,345.011,301.505,348.448z M454.419,141.498c-0.679-2.694-2.586-5.755-5.833-9.001L322.725,6.636
		c-3.833-3.829-7.404-5.792-10.42-6.069V0.5H76.203c-10.409,0-18.926,8.517-18.926,18.925v113.556h37.852v-94.63h208.187v86.11
		c0,15.092,12.349,27.446,27.445,27.446h86.109v321.741H95.129v-37.852H57.277v56.777c0,10.409,8.517,18.926,18.926,18.926h359.594
		c10.408,0,18.926-8.517,18.926-18.926V141.498H454.419z"></path></g></g></svg>